<svg height="512" viewBox="0 0 24 24" width="512" xmlns="http://www.w3.org/2000/svg"><g id="Layer_2" data-name="Layer 2"><path d="m17 22h-12a3.00328 3.00328 0 0 1 -3-3v-15a2.00229 2.00229 0 0 1 2-2h12a2.00229 2.00229 0 0 1 2 2v17a.99974.99974 0 0 1 -1 1zm-13-18v15a1.001 1.001 0 0 0 1 1h11v-16z"/><path d="m9.5 8h-3a1 1 0 0 1 0-2h3a1 1 0 0 1 0 2z"/><path d="m13.5 11.5h-7a1 1 0 0 1 0-2h7a1 1 0 0 1 0 2z"/><path d="m13.5 15h-7a1 1 0 0 1 0-2h7a1 1 0 0 1 0 2z"/><path d="m13.5 18.5h-7a1 1 0 0 1 0-2h7a1 1 0 0 1 0 2z"/><path d="m19 22h-2a.99974.99974 0 0 1 -1-1v-12a.99974.99974 0 0 1 1-1h4a.99974.99974 0 0 1 1 1v10a3.00328 3.00328 0 0 1 -3 3zm-1-2h1a1.001 1.001 0 0 0 1-1v-9h-2z"/></g></svg>