<?xml version="1.0" encoding="UTF-8" standalone="no"?>
<!-- Created with Inkscape (http://www.inkscape.org/) -->

<svg
   version="1.1"
   id="svg810"
   xml:space="preserve"
   width="682.66669"
   height="682.66669"
   viewBox="0 0 682.66669 682.66669"
   xmlns="http://www.w3.org/2000/svg"
   xmlns:svg="http://www.w3.org/2000/svg"><defs
     id="defs814"><clipPath
       clipPathUnits="userSpaceOnUse"
       id="clipPath824"><path
         d="M 0,512 H 512 V 0 H 0 Z"
         id="path822" /></clipPath></defs><g
     id="g816"
     transform="matrix(1.3333333,0,0,-1.3333333,0,682.66667)"><g
       id="g818"><g
         id="g820"
         clip-path="url(#clipPath824)"><g
           id="g826"
           transform="translate(428,32)"><path
             d="m 0,0 h -353 c -33.14,0 -60,26.86 -60,60 V 448 H -60 V 60 C -60,26.86 -33.141,0 0,0 Z"
             style="fill:none;stroke:#000000;stroke-width:30;stroke-linecap:round;stroke-linejoin:round;stroke-miterlimit:10;stroke-dasharray:none;stroke-opacity:1"
             id="path828" /></g><g
           id="g830"
           transform="translate(497,376)"><path
             d="m 0,0 v -284 c 0,-33.14 -26.859,-60 -60,-60 h -9 c -33.141,0 -60,26.86 -60,60 V 0 Z"
             style="fill:none;stroke:#000000;stroke-width:30;stroke-linecap:round;stroke-linejoin:round;stroke-miterlimit:10;stroke-dasharray:none;stroke-opacity:1"
             id="path832" /></g><g
           id="g834"
           transform="translate(433,32)"><path
             d="M 0,0 H -5"
             style="fill:none;stroke:#000000;stroke-width:30;stroke-linecap:round;stroke-linejoin:round;stroke-miterlimit:10;stroke-dasharray:none;stroke-opacity:1"
             id="path836" /></g><g
           id="g838"
           transform="translate(80,408)"><path
             d="M 0,0 H 224"
             style="fill:none;stroke:#000000;stroke-width:30;stroke-linecap:round;stroke-linejoin:round;stroke-miterlimit:10;stroke-dasharray:none;stroke-opacity:1"
             id="path840" /></g><g
           id="g842"
           transform="translate(80,344)"><path
             d="M 0,0 H 224"
             style="fill:none;stroke:#000000;stroke-width:30;stroke-linecap:round;stroke-linejoin:round;stroke-miterlimit:10;stroke-dasharray:none;stroke-opacity:1"
             id="path844" /></g><g
           id="g846"
           transform="translate(80,104)"><path
             d="M 0,0 H 224"
             style="fill:none;stroke:#000000;stroke-width:30;stroke-linecap:round;stroke-linejoin:round;stroke-miterlimit:10;stroke-dasharray:none;stroke-opacity:1"
             id="path848" /></g><path
           d="M 304,168 H 192 v 112 h 112 z"
           style="fill:none;stroke:#000000;stroke-width:30;stroke-linecap:round;stroke-linejoin:round;stroke-miterlimit:10;stroke-dasharray:none;stroke-opacity:1"
           id="path850" /><g
           id="g852"
           transform="translate(80,256)"><path
             d="M 0,0 H 48"
             style="fill:none;stroke:#000000;stroke-width:30;stroke-linecap:round;stroke-linejoin:round;stroke-miterlimit:10;stroke-dasharray:none;stroke-opacity:1"
             id="path854" /></g><g
           id="g856"
           transform="translate(80,192)"><path
             d="M 0,0 H 48"
             style="fill:none;stroke:#000000;stroke-width:30;stroke-linecap:round;stroke-linejoin:round;stroke-miterlimit:10;stroke-dasharray:none;stroke-opacity:1"
             id="path858" /></g></g></g></g></svg>
